<svg aria-hidden="true" style="position: absolute; width: 0; height: 0; overflow: hidden;" version="1.1" xmlns="http://www.w3.org/2000/svg" xmlns:xlink="http://www.w3.org/1999/xlink">
<defs>
<symbol id="icon-instagram" viewBox="0 0 32 32">
<path d="M16 0c-4.347 0-4.889 0.020-6.596 0.096-1.704 0.080-2.864 0.348-3.884 0.744-1.052 0.408-1.945 0.956-2.835 1.845s-1.439 1.781-1.845 2.835c-0.396 1.020-0.665 2.18-0.744 3.884-0.080 1.707-0.096 2.249-0.096 6.596s0.020 4.889 0.096 6.596c0.080 1.703 0.348 2.864 0.744 3.884 0.408 1.051 0.956 1.945 1.845 2.835 0.889 0.888 1.781 1.439 2.835 1.845 1.021 0.395 2.181 0.665 3.884 0.744 1.707 0.080 2.249 0.096 6.596 0.096s4.889-0.020 6.596-0.096c1.703-0.080 2.864-0.349 3.884-0.744 1.051-0.408 1.945-0.957 2.835-1.845 0.888-0.889 1.439-1.78 1.845-2.835 0.395-1.020 0.665-2.181 0.744-3.884 0.080-1.707 0.096-2.249 0.096-6.596s-0.020-4.889-0.096-6.596c-0.080-1.703-0.349-2.865-0.744-3.884-0.408-1.052-0.957-1.945-1.845-2.835-0.889-0.889-1.78-1.439-2.835-1.845-1.020-0.396-2.181-0.665-3.884-0.744-1.707-0.080-2.249-0.096-6.596-0.096zM16 2.88c4.271 0 4.78 0.021 6.467 0.095 1.56 0.073 2.407 0.332 2.969 0.553 0.75 0.289 1.28 0.636 1.843 1.195 0.559 0.56 0.905 1.092 1.195 1.841 0.218 0.563 0.48 1.409 0.551 2.969 0.076 1.688 0.093 2.195 0.093 6.467s-0.020 4.78-0.099 6.467c-0.081 1.56-0.341 2.407-0.561 2.969-0.299 0.75-0.639 1.28-1.199 1.843-0.559 0.559-1.099 0.905-1.84 1.195-0.56 0.218-1.42 0.48-2.98 0.551-1.699 0.076-2.199 0.093-6.479 0.093-4.281 0-4.781-0.020-6.479-0.099-1.561-0.081-2.421-0.341-2.981-0.561-0.759-0.299-1.28-0.639-1.839-1.199-0.561-0.559-0.92-1.099-1.2-1.84-0.22-0.56-0.479-1.42-0.56-2.98-0.060-1.68-0.081-2.199-0.081-6.459 0-4.261 0.021-4.781 0.081-6.481 0.081-1.56 0.34-2.419 0.56-2.979 0.28-0.76 0.639-1.28 1.2-1.841 0.559-0.559 1.080-0.919 1.839-1.197 0.56-0.221 1.401-0.481 2.961-0.561 1.7-0.060 2.2-0.080 6.479-0.080l0.060 0.040zM16 7.784c-4.54 0-8.216 3.68-8.216 8.216 0 4.54 3.68 8.216 8.216 8.216 4.54 0 8.216-3.68 8.216-8.216 0-4.54-3.68-8.216-8.216-8.216zM16 21.333c-2.947 0-5.333-2.387-5.333-5.333s2.387-5.333 5.333-5.333c2.947 0 5.333 2.387 5.333 5.333s-2.387 5.333-5.333 5.333zM26.461 7.46c0 1.060-0.861 1.92-1.92 1.92-1.060 0-1.92-0.861-1.92-1.92s0.861-1.919 1.92-1.919c1.057-0.001 1.92 0.86 1.92 1.919z"></path>
</symbol>
<symbol id="icon-twitter" viewBox="0 0 37 32">
<path d="M36.5 3.811c-1.349 0.638-2.789 1.073-4.305 1.271 1.545-1.002 2.734-2.582 3.296-4.467-1.449 0.91-3.055 1.573-4.765 1.942-1.365-1.573-3.311-2.557-5.472-2.557-4.14 0-7.497 3.614-7.497 8.066 0 0.64 0.069 1.255 0.194 1.844-6.232-0.317-11.756-3.538-15.452-8.409-0.651 1.184-1.015 2.561-1.015 4.060 0 2.805 1.326 5.271 3.334 6.719-1.23-0.043-2.386-0.407-3.395-1.011v0.1c0 3.912 2.58 7.175 6.013 7.918-0.629 0.182-1.294 0.281-1.975 0.281-0.478 0-0.937-0.049-1.396-0.141 0.962 3.204 3.726 5.54 7.015 5.605-2.56 2.164-5.804 3.453-9.298 3.453-0.594 0-1.187-0.038-1.783-0.11 3.335 2.287 7.265 3.624 11.515 3.624 13.796 0 21.331-12.297 21.331-22.943 0-0.343 0-0.689-0.023-1.033 1.464-1.13 2.743-2.559 3.748-4.18l-0.072-0.033z"></path>
</symbol>
<symbol id="icon-youtube" viewBox="0 0 46 32">
<path d="M44.76 4.941c-0.265-0.951-0.77-1.818-1.467-2.516s-1.562-1.204-2.512-1.47c-3.562-0.956-17.905-0.956-17.905-0.956s-14.303-0.019-17.903 0.956c-0.949 0.266-1.814 0.772-2.511 1.471s-1.202 1.565-1.466 2.516c-0.676 3.653-1.009 7.362-0.996 11.077-0.011 3.702 0.323 7.397 0.996 11.037 0.265 0.951 0.77 1.817 1.467 2.515s1.561 1.205 2.511 1.47c3.56 0.958 17.905 0.958 17.905 0.958s14.301 0 17.903-0.958c0.95-0.266 1.815-0.772 2.512-1.471s1.202-1.565 1.467-2.517c0.658-3.641 0.977-7.335 0.952-11.035 0.028-3.715-0.291-7.423-0.952-11.079zM18.301 22.875v-13.729l11.935 6.876-11.935 6.853z"></path>
</symbol>
<symbol id="icon-github" viewBox="0 0 32 32">
<path d="M16 0c-8.84 0-16 7.341-16 16.405 0 7.259 4.58 13.39 10.94 15.564 0.8 0.144 1.1-0.349 1.1-0.779 0-0.39-0.020-1.681-0.020-3.055-4.020 0.759-5.060-1.005-5.38-1.927-0.18-0.472-0.96-1.927-1.64-2.317-0.56-0.308-1.36-1.066-0.020-1.087 1.26-0.021 2.16 1.189 2.46 1.681 1.44 2.481 3.74 1.784 4.66 1.353 0.14-1.066 0.56-1.784 1.020-2.194-3.56-0.41-7.28-1.825-7.28-8.1 0-1.784 0.62-3.261 1.64-4.409-0.16-0.41-0.72-2.092 0.16-4.347 0 0 1.34-0.431 4.4 1.681 1.28-0.369 2.64-0.554 4-0.554s2.72 0.185 4 0.554c3.060-2.133 4.4-1.681 4.4-1.681 0.88 2.256 0.32 3.937 0.16 4.347 1.020 1.148 1.64 2.604 1.64 4.409 0 6.295-3.74 7.69-7.3 8.1 0.58 0.513 1.080 1.497 1.080 3.035 0 2.194-0.020 3.958-0.020 4.511 0 0.431 0.3 0.943 1.1 0.779 6.32-2.174 10.9-8.325 10.9-15.564 0-9.064-7.16-16.405-16-16.405z"></path>
</symbol>
</defs>
</svg>
